User Type,Username,Date,Text
,shaban96,2010-07-05T20:29Z,buddy whats the resolution on this. how come theres no description?
,thepunisher65,2010-07-05T22:06Z,"^^^^

not enough time to do it buddy...

check the sample for more info!!"
,isuru_jr,2011-08-16T13:39Z,"Great quality..!
A/V 10/10
Thanks SecretMyth

General
Complete name                    : Sherlock Holmes.mp4
Format                           : MPEG-4
Format profile                   : Base Media
Codec ID                         : isom
File size                        : 2.10 GiB
Duration                         : 2h 8mn
Overall bit rate                 : 2 338 Kbps
Encoded date                     : UTC 2010-03-12 19:49:31
Tagged date                      : UTC 2010-03-12 19:49:31

Video
ID                               : 1
Format                           : AVC
Format/Info                      : Advanced Video Codec
Format profile                   : High@L4.1
Format settings, CABAC           : Yes
Format settings, ReFrames        : 8 frames
Codec ID                         : avc1
Codec ID/Info                    : Advanced Video Coding
Duration                         : 2h 8mn
Bit rate mode                    : Variable
Bit rate                         : 1 990 Kbps
Maximum bit rate                 : 40.0 Mbps
Width                            : 1 280 pixels
Height                           : 720 pixels
Display aspect ratio             : 16:9
Frame rate mode                  : Constant
Frame rate                       : 23.976 fps
Color space                      : YUV
Chroma subsampling               : 4:2:0
Bit depth                        : 8 bits
Scan type                        : Progressive
Bits/(Pixel*Frame)               : 0.090
Stream size                      : 1.78 GiB (85%)
Writing library                  : x264 core 85 r1442kGIT 781d300
Encoding settings                : cabac=1 / ref=8 / deblock=1:-1:-1 / analyse=0x3:0x113 / me=umh / subme=9 / psy=1 / psy_rd=1.00:1.00 / mixed_ref=1 / me_range=16 / chroma_me=1 / trellis=2 / 8x8dct=1 / cqm=0 / deadzone=21,11 / fast_pskip=1 / chroma_qp_offset=-4 / threads=6 / sliced_threads=0 / slices=4 / nr=0 / decimate=1 / mbaff=0 / interlaced=0 / constrained_intra=0 / bframes=4 / b_pyramid=0 / b_adapt=2 / b_bias=0 / direct=1 / wpredb=1 / wpredp=2 / keyint=24 / keyint_min=2 / scenecut=40 / intra_refresh=0 / rc_lookahead=24 / rc=2pass / mbtree=1 / bitrate=1990 / ratetol=1.0 / qcomp=0.60 / qpmin=10 / qpmax=51 / qpstep=4 / cplxblur=20.0 / qblur=0.5 / vbv_maxrate=40000 / vbv_bufsize=30000 / ip_ratio=1.40 / aq=1:1.00 / pulldown=0 / nal_hrd=1
Encoded date                     : UTC 2010-03-12 06:42:52
Tagged date                      : UTC 2010-03-12 19:51:10
Material_Duration                : 7704710
Material_StreamSize              : 1915765162
Material_FrameCount              : 184728

Audio
ID                               : 2
Format                           : AAC
Format/Info                      : Advanced Audio Codec
Format profile                   : LC
Codec ID                         : 40
Duration                         : 2h 8mn
Bit rate mode                    : Variable
Bit rate                         : 345 Kbps
Maximum bit rate                 : 459 Kbps
Channel(s)                       : 6 channels
Channel positions                : Front: L C R, Side: L R, LFE
Sampling rate                    : 48.0 KHz
Compression mode                 : Lossy
Stream size                      : 316 MiB (15%)
Encoded date                     : UTC 2010-03-12 19:50:52
Tagged date                      : UTC 2010-03-12 19:51:10"
